<svg id="Layer_1" data-name="Layer 1" xmlns="http://www.w3.org/2000/svg" viewBox="0 0 696.33 334.08"><defs><style>.cls-1{fill:#bc8e8f;}.cls-2{fill:#b7b6b6;}</style></defs><path class="cls-1" d="M739.7,434.4,499.84,296.61l238-136.11-115,136.34Q681.25,365.62,739.7,434.4Z" transform="translate(-73.07 -130.27)"/><path class="cls-1" d="M754.84,408.5,568.48,301.44,515,270.71v51.81l80.61-46.11,127.95-73.19L753,186.4,716.6,139.28l-115,136.35c-11.11,13.17-11.27,29.17,0,42.42L718.48,455.61c10.2,12,32.08,11.28,42.43,0,11.73-12.77,10.88-29.62,0-42.42Q702.47,344.4,644,275.63v42.42q57.51-68.16,115-136.34c9.73-11.53,12-26.92,2.35-39.39a30.08,30.08,0,0,0-38.7-7.73l-80.62,46.12L514.11,253.89,484.7,270.71c-19.5,11.15-19.44,40.64,0,51.81L671.06,429.58l53.49,30.73c13.62,7.82,33.44,3.63,41.05-10.77S769.37,416.85,754.84,408.5Z" transform="translate(-73.07 -130.27)"/><path class="cls-2" d="M103.09,190.28l81,.78,124.66,1.21c12.91.12,26.13-.36,38.95,1.25l-8-1.07a113.9,113.9,0,0,1,28.38,7.67l-7.16-3a99.23,99.23,0,0,1,13.4,7c1.87,1.18,3.61,2.55,5.46,3.75-8.59-5.6-1.82-1.36.37.67,1.54,1.43,3,2.92,4.42,4.47.69.77,1.34,1.57,2,2.34,3.34,3.77-4.43-6.4-1.73-2.2a75.88,75.88,0,0,1,6.32,11.44l-3-7.16a56.73,56.73,0,0,1,3.39,12.39l-1.07-8a123.68,123.68,0,0,1,0,30.76l1.07-8a56.66,56.66,0,0,1-3.39,12.4l3-7.17a70.44,70.44,0,0,1-6.32,11.44c-2.48,3.75,4.38-5.26,2.11-2.67-.67.77-1.31,1.58-2,2.35-1.53,1.72-3.15,3.36-4.84,4.93-1.18,1.1-6.93,5.74-2.37,2.22,4.34-3.36.92-.74-.13,0s-2.2,1.5-3.33,2.21a97,97,0,0,1-13.4,7l7.16-3A114.35,114.35,0,0,1,339.7,282l8-1.08c-13.67,1.72-27.6,1-41.35,1H260.85c-12.67,0-26,9.27-28.92,22-3,13.09,2,26.86,13.78,33.88L443.65,455.72c13.49,8,33.52,3.48,41-10.76,7.65-14.48,3.65-32.47-10.76-41L276,286l-15.15,55.91h58.32c18.22,0,36.46-.57,54.06-5.86,32.89-9.9,61.4-31.93,73.43-64.74,4-10.93,4.32-22.62,4.32-34.12,0-11.7-.37-23.57-4.53-34.66-12.26-32.74-40.93-54.72-73.92-64.4-26.47-7.77-55.88-5.8-83.24-6.07L178.35,131c-24.68-.24-49.39-.87-74.07-.72h-1.19c-15.7-.15-30.72,13.91-30,30,.73,16.38,13.18,29.84,30,30Z" transform="translate(-73.07 -130.27)"/><path class="cls-2" d="M166.27,255.5V433.38c0,10.79,9.49,21.12,20.63,20.62s20.62-9.06,20.62-20.62V255.5c0-10.79-9.48-21.13-20.62-20.63s-20.63,9.06-20.63,20.63Z" transform="translate(-73.07 -130.27)"/></svg>